{"title":"The Lullaby of Bareland (1964).avi","uid":5273711,"size":419475974,"categoryP":"video","categoryS":"movies","magnet":"?xt=urn:btih:c3afe883efebae765c3d2f5a1acbb85acdb45c17&amp;dn=The+Lullaby+of+Bareland+%281964%29.avi&amp;tr=udp%3A%2F%2Ftracker.openbittorrent.com%3A80&amp;tr=udp%3A%2F%2Fopen.demonii.com%3A1337&amp;tr=udp%3A%2F%2Ftracker.coppersurfer.tk%3A6969&amp;tr=udp%3A%2F%2Fexodus.desync.com%3A6969","seeders":0,"leechers":9,"uploader":"Beebe85","files":-1,"time":1263314306,"description":"Complete name                    : The Lullaby of Bareland (1964).avi\nFormat                           : AVI\nFormat/Info                      : Audio Video Interleave\nFile size                        : 400 MiB\nDuration                         : 56mn 50s\nOverall bit rate                 : 984 Kbps\nWriting library                  : VirtualDub build 28292/release\n\nVideo\nID                               : 0\nFormat                           : MPEG-4 Visual\nFormat settings, BVOP            : Yes\nFormat settings, QPel            : No\nFormat settings, GMC             : No warppoints\nFormat settings, Matrix          : Default (H.263)\nMuxing mode                      : Packed bitstream\nCodec ID                         : DX50\nCodec ID/Hint                    : DivX 5\nDuration                         : 56mn 50s\nBit rate                         : 780 Kbps\nWidth                            : 640 pixels\nHeight                           : 480 pixels\nDisplay aspect ratio             : 4:3\nFrame rate                       : 29.970 fps\nResolution                       : 24 bits\nColorimetry                      : 4:2:0\nScan type                        : Progressive\nBits/(Pixel*Frame)               : 0.085\nStream size                      : 317 MiB (79%)\nWriting library                  : DivX 6.2.5 (UTC 2006-07)\n\nAudio\nID                               : 1\nFormat                           : MPEG Audio\nFormat version                   : Version 1\nFormat profile                   : Layer 3\nCodec ID                         : 55\nCodec ID/Hint                    : MP3\nDuration                         : 56mn 50s\nBit rate mode                    : Constant\nBit rate                         : 192 Kbps\nChannel(s)                       : 2 channels\nSampling rate                    : 44.1 KHz\nResolution                       : 16 bits\nVideo delay                      : 4ms\nStream size                      : 78.1 MiB (20%)\nAlignment                        : Split accross interleaves\nInterleave, duration             : 33 ms (1.00 video frame)\nInterleave, preload duration     : 500 ms\n\n &lt;a href=&quot;\nhttp://www.somethingweird.com/cart.php?target=product&amp;product_id=27770&amp;substring=bareland&quot; rel=&quot;nofollow&quot; target=&quot;_NEW&quot;&gt;\nhttp://www.somethingweird.com/cart.php?target=product&amp;product_id=27770&amp;substring=bareland&lt;/a&gt;","torrent":{"xt":"urn:btih:c3afe883efebae765c3d2f5a1acbb85acdb45c17","amp;dn":"The+Lullaby+of+Bareland+%281964%29.avi","amp;tr":["udp%3A%2F%2Ftracker.openbittorrent.com%3A80","udp%3A%2F%2Fopen.demonii.com%3A1337","udp%3A%2F%2Ftracker.coppersurfer.tk%3A6969","udp%3A%2F%2Fexodus.desync.com%3A6969"],"infoHash":"c3afe883efebae765c3d2f5a1acbb85acdb45c17","infoHashBuffer":{"type":"Buffer","data":[195,175,232,131,239,235,174,118,92,61,47,90,26,203,184,90,205,180,92,23]},"announce":[],"urlList":[]}}